<svg xmlns="http://www.w3.org/2000/svg" width="74.26" height="67.643" viewBox="0 0 74.26 67.643">
  <path id="discuss-issue" d="M56.816,32.12c0,2.25-1.638,3.618-2.834,4.622-.453.38-1.3,1.074-1.294,1.333A1.813,1.813,0,0,1,50.863,39.9h-.015a1.818,1.818,0,0,1-1.841-1.8c-.016-1.994,1.439-3.188,2.608-4.17.918-.77,1.519-1.313,1.519-1.809a1.822,1.822,0,0,0-3.643,0,1.841,1.841,0,0,1-3.682,0,5.5,5.5,0,0,1,11.008-.007ZM50.9,41.6a1.807,1.807,0,0,0-1.8,1.841v.014a1.8,1.8,0,0,0,1.8,1.834,1.845,1.845,0,0,0,0-3.689ZM13.787,54.429a1.841,1.841,0,1,0,0,3.682h.153a1.841,1.841,0,0,0,0-3.682Zm6.4,0a1.841,1.841,0,0,0,0,3.682h.153a1.841,1.841,0,1,0,0-3.682ZM74.26,25.022V45.746a8.851,8.851,0,0,1-8.841,8.888H41.542c-.467,0-.851,0-1.173-.009-.337-.007-.716-.01-.864.007-.154.1-.532.448-.9.784-.144.133-.307.279-.484.44L31.37,62.012a1.884,1.884,0,0,1-3.139-1.36V41.132H8.944a5.276,5.276,0,0,0-5.262,5.234V67.089a5.2,5.2,0,0,0,5.262,5.138H35.615a1.848,1.848,0,0,1,1.228.521l5.5,5.074v-17.5a1.841,1.841,0,0,1,3.682,0V82a1.815,1.815,0,0,1-1.085,1.675,1.766,1.766,0,0,1-.73.147,1.861,1.861,0,0,1-1.242-.5L34.9,75.909H8.944A8.881,8.881,0,0,1,0,67.089V46.366A8.962,8.962,0,0,1,8.944,37.45H28.231V25.022a8.931,8.931,0,0,1,8.975-8.848H65.42A8.816,8.816,0,0,1,74.26,25.022Zm-3.682,0a5.13,5.13,0,0,0-5.159-5.166H37.206a5.245,5.245,0,0,0-5.293,5.166V56.479l3.7-3.345c.171-.156.364-.3.5-.429,1.69-1.558,2.123-1.807,4.328-1.761.3.006.659.009,1.1.009H65.419a5.164,5.164,0,0,0,5.159-5.206V25.022Z" transform="translate(0 -16.174)" fill="#fff"/>
</svg>
