<svg xmlns="http://www.w3.org/2000/svg" width="56.868" height="36.557" viewBox="0 0 56.868 36.557">
  <path id="Path_5" data-name="Path 5" d="M56.233,107.454A33.893,33.893,0,0,0,44.285,95.776a30.685,30.685,0,0,0-31.7,0A33.885,33.885,0,0,0,.634,107.454a4.1,4.1,0,0,0,0,4.379,33.877,33.877,0,0,0,11.948,11.678,30.737,30.737,0,0,0,31.7.016,33.668,33.668,0,0,0,11.948-11.694,4.1,4.1,0,0,0,0-4.379ZM21.626,98.775a9.286,9.286,0,0,1,6.807-2.84,1.523,1.523,0,1,1,0,3.047,6.609,6.609,0,0,0-6.6,6.6,1.524,1.524,0,1,1-3.047,0A9.287,9.287,0,0,1,21.626,98.775Zm20.6,21.231a26.584,26.584,0,0,1-27.577,0A32.755,32.755,0,0,1,4.062,109.644a31.189,31.189,0,0,1,12.091-11.2,13.868,13.868,0,0,0-1.936,7.14,13.693,13.693,0,0,0,4.173,10.044A13.69,13.69,0,0,0,28.434,119.8a13.694,13.694,0,0,0,10.044-4.173,13.689,13.689,0,0,0,4.173-10.044,13.866,13.866,0,0,0-1.936-7.14,31.193,31.193,0,0,1,12.091,11.2A32.746,32.746,0,0,1,42.223,120.006Z" transform="translate(0 -91.365)" fill="#fff"/>
</svg>
