<svg xmlns="http://www.w3.org/2000/svg" width="73.81" height="73.81" viewBox="0 0 73.81 73.81">
  <path id="Path_6" data-name="Path 6" d="M73.81,9.489,62.739,11.071,64.321,0,55.9,8.421a35.78,35.78,0,1,0,9.489,9.489ZM56.347,58.584A29.077,29.077,0,1,1,15.226,17.463a29.081,29.081,0,0,1,38.612-2.237l-8,8a17.892,17.892,0,1,0,4.745,4.745l8-8a29.081,29.081,0,0,1-2.236,38.613ZM34.309,39.5a3.355,3.355,0,0,0,4.745,0L45.7,32.855a11.2,11.2,0,1,1-4.745-4.744l-6.646,6.646A3.355,3.355,0,0,0,34.309,39.5Z" fill="#fff"/>
</svg>
