<svg xmlns="http://www.w3.org/2000/svg" width="64.641" height="65.537" viewBox="0 0 64.641 65.537">
  <g id="mission" transform="translate(0 0)">
    <path id="Path_27" data-name="Path 27" d="M25.287,74.075a8.537,8.537,0,1,0-8.537-8.537A8.547,8.547,0,0,0,25.287,74.075Zm0,0" transform="translate(-14.606 -49.704)" fill="#fff"/>
    <path id="Path_28" data-name="Path 28" d="M257.342,5.252a1.91,1.91,0,0,0-.817-1.568A14.935,14.935,0,0,0,247.286.746a19.677,19.677,0,0,0-9.055,2.842,13.934,13.934,0,0,1-6.953,1.906,15.99,15.99,0,0,1-6.442-1.451V1.92a1.92,1.92,0,0,0-3.84,0v61.7a1.92,1.92,0,1,0,3.84,0V27.366a14.145,14.145,0,0,0,6.224,1.225,19.677,19.677,0,0,0,9.054-2.842,13.935,13.935,0,0,1,6.953-1.906,16.545,16.545,0,0,1,7.379,1.891,1.92,1.92,0,0,0,2.9-1.65V5.252Zm0,0" transform="translate(-192.709 0)" fill="#fff"/>
    <path id="Path_29" data-name="Path 29" d="M5.539,217.965A5.591,5.591,0,0,0,0,223.475l0,11.576a5.492,5.492,0,0,0,3.011,4.905l.007,13.726A1.92,1.92,0,0,0,4.94,255.6H16.381a1.92,1.92,0,0,0,1.92-1.92V229.489h6.146V217.968l-18.909,0Zm0,0" transform="translate(0 -190.065)" fill="#fff"/>
  </g>
</svg>
