<svg xmlns="http://www.w3.org/2000/svg" width="64.456" height="77.347" viewBox="0 0 64.456 77.347">
  <g id="newspaper" transform="translate(-40)">
    <g id="Group_30" data-name="Group 30" transform="translate(40)">
      <g id="Group_29" data-name="Group 29" transform="translate(0)">
        <path id="Path_7" data-name="Path 7" d="M98.01,0H51.6a6.447,6.447,0,0,0-6.327,5.275A6.447,6.447,0,0,0,40,11.6V70.9a6.453,6.453,0,0,0,6.446,6.446H92.854a6.447,6.447,0,0,0,6.327-5.275,6.447,6.447,0,0,0,5.275-6.327V6.446A6.453,6.453,0,0,0,98.01,0ZM96.721,70.9a3.872,3.872,0,0,1-3.867,3.867H46.446A3.872,3.872,0,0,1,42.578,70.9V11.6a3.872,3.872,0,0,1,3.867-3.867H85.119V18.048a1.288,1.288,0,0,0,1.289,1.289H96.721ZM87.7,16.759v-7.2l7.2,7.2Zm14.18,48.987a3.862,3.862,0,0,1-2.578,3.63V18.048a1.287,1.287,0,0,0-.379-.913l-11.6-11.6a1.288,1.288,0,0,0-.914-.38H47.972A3.862,3.862,0,0,1,51.6,2.578H98.01a3.872,3.872,0,0,1,3.867,3.867Z" transform="translate(-40)" fill="#fff"/>
      </g>
    </g>
    <g id="Group_32" data-name="Group 32" transform="translate(63.204 11.602)">
      <g id="Group_31" data-name="Group 31">
        <path id="Path_8" data-name="Path 8" d="M190.446,72a6.446,6.446,0,1,0,6.446,6.446A6.453,6.453,0,0,0,190.446,72Zm0,10.313a3.867,3.867,0,1,1,3.867-3.867A3.872,3.872,0,0,1,190.446,82.313Z" transform="translate(-184 -72)" fill="#fff"/>
      </g>
    </g>
    <g id="Group_34" data-name="Group 34" transform="translate(46.446 28.361)">
      <g id="Group_33" data-name="Group 33">
        <rect id="Rectangle_102" data-name="Rectangle 102" width="12.891" height="2.578" fill="#fff"/>
      </g>
    </g>
    <g id="Group_36" data-name="Group 36" transform="translate(63.204 28.361)">
      <g id="Group_35" data-name="Group 35">
        <rect id="Rectangle_103" data-name="Rectangle 103" width="3.867" height="2.578" fill="#fff"/>
      </g>
    </g>
    <g id="Group_38" data-name="Group 38" transform="translate(72.228 28.361)">
      <g id="Group_37" data-name="Group 37" transform="translate(0)">
        <rect id="Rectangle_104" data-name="Rectangle 104" width="12.891" height="2.578" fill="#fff"/>
      </g>
    </g>
    <g id="Group_40" data-name="Group 40" transform="translate(88.987 28.361)">
      <g id="Group_39" data-name="Group 39" transform="translate(0)">
        <rect id="Rectangle_105" data-name="Rectangle 105" width="3.867" height="2.578" fill="#fff"/>
      </g>
    </g>
    <g id="Group_42" data-name="Group 42" transform="translate(46.446 33.517)">
      <g id="Group_41" data-name="Group 41">
        <rect id="Rectangle_106" data-name="Rectangle 106" width="12.891" height="2.578" fill="#fff"/>
      </g>
    </g>
    <g id="Group_44" data-name="Group 44" transform="translate(63.204 33.517)">
      <g id="Group_43" data-name="Group 43">
        <rect id="Rectangle_107" data-name="Rectangle 107" width="3.867" height="2.578" fill="#fff"/>
      </g>
    </g>
    <g id="Group_46" data-name="Group 46" transform="translate(72.228 33.517)">
      <g id="Group_45" data-name="Group 45" transform="translate(0)">
        <rect id="Rectangle_108" data-name="Rectangle 108" width="12.891" height="2.578" fill="#fff"/>
      </g>
    </g>
    <g id="Group_48" data-name="Group 48" transform="translate(88.987 33.517)">
      <g id="Group_47" data-name="Group 47" transform="translate(0)">
        <rect id="Rectangle_109" data-name="Rectangle 109" width="3.867" height="2.578" fill="#fff"/>
      </g>
    </g>
    <g id="Group_50" data-name="Group 50" transform="translate(46.446 38.674)">
      <g id="Group_49" data-name="Group 49">
        <rect id="Rectangle_110" data-name="Rectangle 110" width="12.891" height="2.578" fill="#fff"/>
      </g>
    </g>
    <g id="Group_52" data-name="Group 52" transform="translate(63.204 38.674)">
      <g id="Group_51" data-name="Group 51">
        <rect id="Rectangle_111" data-name="Rectangle 111" width="3.867" height="2.578" fill="#fff"/>
      </g>
    </g>
    <g id="Group_54" data-name="Group 54" transform="translate(72.228 38.674)">
      <g id="Group_53" data-name="Group 53" transform="translate(0)">
        <rect id="Rectangle_112" data-name="Rectangle 112" width="12.891" height="2.578" fill="#fff"/>
      </g>
    </g>
    <g id="Group_56" data-name="Group 56" transform="translate(88.987 38.674)">
      <g id="Group_55" data-name="Group 55" transform="translate(0)">
        <rect id="Rectangle_113" data-name="Rectangle 113" width="3.867" height="2.578" fill="#fff"/>
      </g>
    </g>
    <g id="Group_58" data-name="Group 58" transform="translate(46.446 43.83)">
      <g id="Group_57" data-name="Group 57">
        <rect id="Rectangle_114" data-name="Rectangle 114" width="12.891" height="2.578" fill="#fff"/>
      </g>
    </g>
    <g id="Group_60" data-name="Group 60" transform="translate(63.204 43.83)">
      <g id="Group_59" data-name="Group 59">
        <rect id="Rectangle_115" data-name="Rectangle 115" width="3.867" height="2.578" fill="#fff"/>
      </g>
    </g>
    <g id="Group_62" data-name="Group 62" transform="translate(72.228 43.83)">
      <g id="Group_61" data-name="Group 61" transform="translate(0)">
        <rect id="Rectangle_116" data-name="Rectangle 116" width="12.891" height="2.578" fill="#fff"/>
      </g>
    </g>
    <g id="Group_64" data-name="Group 64" transform="translate(88.987 43.83)">
      <g id="Group_63" data-name="Group 63" transform="translate(0)">
        <rect id="Rectangle_117" data-name="Rectangle 117" width="3.867" height="2.578" fill="#fff"/>
      </g>
    </g>
    <g id="Group_66" data-name="Group 66" transform="translate(46.446 51.565)">
      <g id="Group_65" data-name="Group 65">
        <rect id="Rectangle_118" data-name="Rectangle 118" width="12.891" height="2.578" fill="#fff"/>
      </g>
    </g>
    <g id="Group_68" data-name="Group 68" transform="translate(63.204 51.565)">
      <g id="Group_67" data-name="Group 67">
        <rect id="Rectangle_119" data-name="Rectangle 119" width="3.867" height="2.578" fill="#fff"/>
      </g>
    </g>
    <g id="Group_70" data-name="Group 70" transform="translate(72.228 51.565)">
      <g id="Group_69" data-name="Group 69" transform="translate(0)">
        <rect id="Rectangle_120" data-name="Rectangle 120" width="12.891" height="2.578" fill="#fff"/>
      </g>
    </g>
    <g id="Group_72" data-name="Group 72" transform="translate(88.987 51.565)">
      <g id="Group_71" data-name="Group 71" transform="translate(0)">
        <rect id="Rectangle_121" data-name="Rectangle 121" width="3.867" height="2.578" fill="#fff"/>
      </g>
    </g>
    <g id="Group_74" data-name="Group 74" transform="translate(46.446 56.721)">
      <g id="Group_73" data-name="Group 73">
        <rect id="Rectangle_122" data-name="Rectangle 122" width="12.891" height="2.578" fill="#fff"/>
      </g>
    </g>
    <g id="Group_76" data-name="Group 76" transform="translate(63.204 56.721)">
      <g id="Group_75" data-name="Group 75">
        <rect id="Rectangle_123" data-name="Rectangle 123" width="3.867" height="2.578" fill="#fff"/>
      </g>
    </g>
    <g id="Group_78" data-name="Group 78" transform="translate(72.228 56.721)">
      <g id="Group_77" data-name="Group 77" transform="translate(0)">
        <rect id="Rectangle_124" data-name="Rectangle 124" width="12.891" height="2.578" fill="#fff"/>
      </g>
    </g>
    <g id="Group_80" data-name="Group 80" transform="translate(88.987 56.721)">
      <g id="Group_79" data-name="Group 79" transform="translate(0)">
        <rect id="Rectangle_125" data-name="Rectangle 125" width="3.867" height="2.578" fill="#fff"/>
      </g>
    </g>
    <g id="Group_82" data-name="Group 82" transform="translate(46.446 61.878)">
      <g id="Group_81" data-name="Group 81">
        <rect id="Rectangle_126" data-name="Rectangle 126" width="12.891" height="2.578" fill="#fff"/>
      </g>
    </g>
    <g id="Group_84" data-name="Group 84" transform="translate(63.204 61.878)">
      <g id="Group_83" data-name="Group 83">
        <rect id="Rectangle_127" data-name="Rectangle 127" width="3.867" height="2.578" fill="#fff"/>
      </g>
    </g>
    <g id="Group_86" data-name="Group 86" transform="translate(72.228 61.878)">
      <g id="Group_85" data-name="Group 85" transform="translate(0)">
        <rect id="Rectangle_128" data-name="Rectangle 128" width="12.891" height="2.578" fill="#fff"/>
      </g>
    </g>
    <g id="Group_88" data-name="Group 88" transform="translate(88.987 61.878)">
      <g id="Group_87" data-name="Group 87" transform="translate(0)">
        <rect id="Rectangle_129" data-name="Rectangle 129" width="3.867" height="2.578" fill="#fff"/>
      </g>
    </g>
    <g id="Group_90" data-name="Group 90" transform="translate(46.446 67.034)">
      <g id="Group_89" data-name="Group 89">
        <rect id="Rectangle_130" data-name="Rectangle 130" width="12.891" height="2.578" fill="#fff"/>
      </g>
    </g>
    <g id="Group_92" data-name="Group 92" transform="translate(63.204 67.034)">
      <g id="Group_91" data-name="Group 91">
        <rect id="Rectangle_131" data-name="Rectangle 131" width="3.867" height="2.578" fill="#fff"/>
      </g>
    </g>
    <g id="Group_94" data-name="Group 94" transform="translate(72.228 67.034)">
      <g id="Group_93" data-name="Group 93" transform="translate(0)">
        <rect id="Rectangle_132" data-name="Rectangle 132" width="12.891" height="2.578" fill="#fff"/>
      </g>
    </g>
    <g id="Group_96" data-name="Group 96" transform="translate(88.987 67.034)">
      <g id="Group_95" data-name="Group 95" transform="translate(0)">
        <rect id="Rectangle_133" data-name="Rectangle 133" width="3.867" height="2.578" fill="#fff"/>
      </g>
    </g>
  </g>
</svg>
